<svg width="24" height="24" viewBox="0 0 24 24" fill="none" xmlns="http://www.w3.org/2000/svg">
<path d="M10.6667 12.5H14.0001M10.6667 9.16669H14.0001M14.0001 20V17.5C14.0001 17.058 13.8245 16.6341 13.5119 16.3215C13.1994 16.0089 12.7754 15.8334 12.3334 15.8334C11.8914 15.8334 11.4675 16.0089 11.1549 16.3215C10.8423 16.6341 10.6667 17.058 10.6667 17.5V20" stroke="currentColor" stroke-width="1.5" stroke-linecap="round" stroke-linejoin="round"/>
<path d="M7.33333 10.8333H5.66667C5.22464 10.8333 4.80072 11.0089 4.48816 11.3215C4.17559 11.634 4 12.058 4 12.5V18.3333C4 18.7753 4.17559 19.1993 4.48816 19.5118C4.80072 19.8244 5.22464 20 5.66667 20H19C19.442 20 19.8659 19.8244 20.1785 19.5118C20.4911 19.1993 20.6667 18.7753 20.6667 18.3333V9.99998C20.6667 9.55795 20.4911 9.13403 20.1785 8.82147C19.8659 8.50891 19.442 8.33331 19 8.33331H17.3333" stroke="currentColor" stroke-width="1.5" stroke-linecap="round" stroke-linejoin="round"/>
<path d="M7.33325 20V6.66667C7.33325 6.22464 7.50885 5.80072 7.82141 5.48816C8.13397 5.17559 8.55789 5 8.99992 5H15.6666C16.1086 5 16.5325 5.17559 16.8451 5.48816C17.1577 5.80072 17.3333 6.22464 17.3333 6.66667V20" stroke="currentColor" stroke-width="1.5" stroke-linecap="round" stroke-linejoin="round"/>
</svg>
