<svg width="16" height="16" viewBox="0 0 16 16" fill="none" xmlns="http://www.w3.org/2000/svg">
<path d="M8.66666 14.0001H14M14.116 4.54138C14.2905 4.3669 14.429 4.15975 14.5234 3.93176C14.6179 3.70377 14.6666 3.45941 14.6666 3.21262C14.6666 2.96583 14.618 2.72146 14.5236 2.49344C14.4292 2.26543 14.2908 2.05824 14.1163 1.88372C13.9418 1.70919 13.7347 1.57074 13.5067 1.47627C13.2787 1.3818 13.0344 1.33316 12.7876 1.33313C12.5408 1.3331 12.2964 1.38168 12.0684 1.47609C11.8404 1.5705 11.6332 1.7089 11.4587 1.88338L2.56133 10.7827C2.40654 10.9371 2.29207 11.1271 2.228 11.3361L1.34733 14.2374C1.3301 14.295 1.3288 14.3563 1.34356 14.4146C1.35833 14.473 1.38861 14.5262 1.43119 14.5687C1.47378 14.6112 1.52708 14.6414 1.58544 14.6561C1.64379 14.6708 1.70504 14.6694 1.76266 14.6521L4.66466 13.7721C4.87344 13.7086 5.06345 13.5948 5.218 13.4407L14.116 4.54138Z" stroke="currentColor" stroke-width="2" stroke-linecap="round" stroke-linejoin="round"/>
</svg>
