<svg width="67" height="71" viewBox="0 0 67 71" fill="none" xmlns="http://www.w3.org/2000/svg">
<path d="M61.5676 12.299C61.5676 8.77005 58.3404 5.46231 53.7834 5.46148H17.7409C13.1835 5.46199 9.95659 8.76988 9.95659 12.299V47.7133C9.95654 48.7896 9.80524 49.8597 9.50743 50.8956L5.44376 65.0258C5.42629 65.0868 5.43437 65.111 5.44023 65.1289C5.45063 65.1603 5.48602 65.2321 5.57816 65.3138C5.76866 65.4819 6.10413 65.6057 6.50831 65.4987L19.3713 62.0888C20.5514 61.7763 21.7724 61.6195 22.9964 61.6195H53.7834C58.3403 61.6186 61.5674 58.3108 61.5676 54.7819V12.299ZM67 54.7819C66.9998 61.8205 60.825 67.0801 53.7834 67.0809H22.9964C22.2364 67.0809 21.4827 67.1805 20.7577 67.3725L7.89116 70.7788C5.68558 71.363 3.49245 70.7501 1.98133 69.4099C0.455109 68.0561 -0.448334 65.8571 0.227132 63.5075L4.28726 49.3773C4.44414 48.8312 4.52418 48.2725 4.52422 47.7133V12.299C4.52422 5.26002 10.6989 0.00052102 17.7409 0H53.7834C60.8251 0.000847704 67 5.26025 67 12.299V54.7819Z" fill="currentColor"/>
<path d="M32.5411 40.2146C32.5876 33.8502 34.4039 31.9069 37.4776 29.915C39.4335 28.6518 40.9238 26.9028 40.9238 24.3279C40.9238 21.2672 38.6884 19.3725 35.8941 19.3725C34.013 19.3725 32.1839 20.2696 31.2842 22.2264C30.7155 23.4633 29.6776 24.5709 28.3308 24.5709C26.8884 24.5709 25.6925 23.3435 26.0706 21.9333C27.2759 17.439 31.2009 15 35.8941 15C41.9483 15 46 18.7895 46 24.3279C46 28.2146 44.2303 30.8381 41.2498 32.7328C38.4555 34.4818 37.3844 36.2794 37.2913 40.2146C37.2913 40.389 37.1819 40.5441 37.0191 40.6007L35.6872 41.0639C35.1875 41.2376 34.6448 41.2376 34.1451 41.0639L32.8132 40.6007C32.6504 40.5441 32.5411 40.389 32.5411 40.2146ZM35.1024 51C33.2862 51 31.7494 49.4453 31.7959 47.5506C31.7494 45.6559 33.2862 44.1012 35.1024 44.1012C36.8721 44.1012 38.409 45.6559 38.409 47.5506C38.409 49.4453 36.8721 51 35.1024 51Z" fill="currentColor"/>
</svg>
