<svg width="28" height="28" viewBox="0 0 28 28" fill="none" xmlns="http://www.w3.org/2000/svg">
<path d="M13.9999 25.6667C20.4432 25.6667 25.6666 20.4433 25.6666 14C25.6666 7.55669 20.4432 2.33334 13.9999 2.33334C7.5566 2.33334 2.33325 7.55669 2.33325 14C2.33325 20.4433 7.5566 25.6667 13.9999 25.6667Z" stroke="black" stroke-width="2" stroke-linecap="round" stroke-linejoin="round"/>
<path d="M14 15.1667C15.933 15.1667 17.5 13.5997 17.5 11.6667C17.5 9.73369 15.933 8.16669 14 8.16669C12.067 8.16669 10.5 9.73369 10.5 11.6667C10.5 13.5997 12.067 15.1667 14 15.1667Z" stroke="black" stroke-width="2" stroke-linecap="round" stroke-linejoin="round"/>
<path d="M8.1665 24.1057V22.1667C8.1665 21.5478 8.41234 20.9543 8.84992 20.5168C9.28751 20.0792 9.881 19.8333 10.4998 19.8333H17.4998C18.1187 19.8333 18.7122 20.0792 19.1498 20.5168C19.5873 20.9543 19.8332 21.5478 19.8332 22.1667V24.1057" stroke="black" stroke-width="2" stroke-linecap="round" stroke-linejoin="round"/>
</svg>
