<svg width="48" height="48" viewBox="0 0 48 48" fill="none" xmlns="http://www.w3.org/2000/svg">
<rect x="0.5" y="0.5" width="47" height="47" rx="23.5" fill="#FF9D69"/>
<rect x="0.5" y="0.5" width="47" height="47" rx="23.5" stroke="#FF9D69"/>
<path d="M24.1816 13C29.7045 13 34.1816 17.4772 34.1816 23C34.1816 26.8039 32.0573 30.1112 28.9307 31.8018C33.721 33.3061 37.6208 36.8158 39.6533 41.3457C35.4754 44.8727 30.0774 47 24.1816 47C17.9465 47 12.2672 44.6218 8 40.7236C10.2019 36.2924 14.227 32.9271 19.0938 31.6084C16.1538 29.8671 14.1816 26.6646 14.1816 23C14.1816 17.4772 18.6588 13 24.1816 13Z" fill="white"/>
</svg>
