<svg width="16" height="16" viewBox="0 0 16 16" fill="none" xmlns="http://www.w3.org/2000/svg">
<path d="M13.3333 8.66762C13.3333 12.001 11 13.6676 8.22663 14.6343C8.0814 14.6835 7.92365 14.6811 7.77996 14.6276C4.99996 13.6676 2.66663 12.001 2.66663 8.66762V4.00095C2.66663 3.82414 2.73686 3.65457 2.86189 3.52955C2.98691 3.40452 3.15648 3.33428 3.33329 3.33428C4.66663 3.33428 6.33329 2.53428 7.49329 1.52095C7.63453 1.40028 7.8142 1.33398 7.99996 1.33398C8.18572 1.33398 8.36539 1.40028 8.50663 1.52095C9.67329 2.54095 11.3333 3.33428 12.6666 3.33428C12.8434 3.33428 13.013 3.40452 13.138 3.52955C13.2631 3.65457 13.3333 3.82414 13.3333 4.00095V8.66762Z" stroke="#03CC2F" stroke-width="1.5" stroke-linecap="round" stroke-linejoin="round"/>
<path d="M4.25061 12.6081C4.53509 11.8429 5.04689 11.1831 5.71729 10.7172C6.3877 10.2513 7.18459 10.0017 8.00097 10.002C8.81735 10.0022 9.61412 10.2522 10.2843 10.7184C10.9544 11.1846 11.4659 11.8448 11.7499 12.6101" stroke="#03CC2F" stroke-width="1.5" stroke-linecap="round" stroke-linejoin="round"/>
<path d="M7.99992 10.0013C9.47268 10.0013 10.6666 8.80739 10.6666 7.33464C10.6666 5.86188 9.47268 4.66797 7.99992 4.66797C6.52716 4.66797 5.33325 5.86188 5.33325 7.33464C5.33325 8.80739 6.52716 10.0013 7.99992 10.0013Z" stroke="#03CC2F" stroke-width="1.5" stroke-linecap="round" stroke-linejoin="round"/>
</svg>
