<svg width="20" height="20" viewBox="0 0 19 19" fill="none" xmlns="http://www.w3.org/2000/svg">
<path d="M5.16667 14.3333V9.33333C5.16667 8.22826 5.60565 7.16846 6.38705 6.38705C7.16846 5.60565 8.22826 5.16667 9.33333 5.16667C10.4384 5.16667 11.4982 5.60565 12.2796 6.38705C13.061 7.16846 13.5 8.22826 13.5 9.33333V14.3333M5.16667 14.3333H13.5M5.16667 14.3333C4.72464 14.3333 4.30072 14.5089 3.98816 14.8215C3.67559 15.134 3.5 15.558 3.5 16V16.8333C3.5 17.0543 3.5878 17.2663 3.74408 17.4226C3.90036 17.5789 4.11232 17.6667 4.33333 17.6667H14.3333C14.5543 17.6667 14.7663 17.5789 14.9226 17.4226C15.0789 17.2663 15.1667 17.0543 15.1667 16.8333V16C15.1667 15.558 14.9911 15.134 14.6785 14.8215C14.366 14.5089 13.942 14.3333 13.5 14.3333M16.8333 9.33333H17.6667M14.75 3.08333L14.3333 3.5M1 9.33333H1.83333M9.33333 1V1.83333M3.44083 3.44083L4.03 4.03M9.33333 9.33333V14.3333" stroke="currentColor" stroke-width="2" stroke-linecap="round" stroke-linejoin="round"/>
</svg>
