<svg width="53" height="22" viewBox="0 0 53 22" fill="none" xmlns="http://www.w3.org/2000/svg">
<path d="M0 16.9688V0H3.04688V14.3906H10.5469V16.9688H0ZM18.3984 17.2266C14.6953 17.2266 12.3047 14.6016 12.3047 10.6641C12.3047 6.70312 14.6953 4.07812 18.3984 4.07812C22.125 4.07812 24.4922 6.70312 24.4922 10.6641C24.4922 14.6016 22.125 17.2266 18.3984 17.2266ZM18.4219 14.8359C20.4609 14.8359 21.4688 12.9844 21.4688 10.6406C21.4688 8.32031 20.4609 6.44531 18.4219 6.44531C16.3359 6.44531 15.3281 8.32031 15.3281 10.6406C15.3281 12.9844 16.3359 14.8359 18.4219 14.8359ZM32.3672 22.0078C28.9922 22.0078 26.8594 20.5078 26.6484 18.1172H29.625C29.8359 19.2188 30.8906 19.7578 32.4141 19.7578C34.1953 19.7578 35.3672 18.9844 35.3672 17.1094V14.6719H35.2266C34.7578 15.6094 33.75 16.7812 31.5469 16.7812C28.6172 16.7812 26.2969 14.6484 26.2969 10.5C26.2969 6.30469 28.6172 4.07812 31.5703 4.07812C33.8203 4.07812 34.7578 5.41406 35.2266 6.32812H35.3672V4.24219H38.3203V17.1797C38.3203 20.4375 35.8125 22.0078 32.3672 22.0078ZM32.3672 14.4375C34.2891 14.4375 35.3906 12.9844 35.3906 10.5469C35.3906 8.13281 34.3125 6.51562 32.3672 6.51562C30.375 6.51562 29.3438 8.22656 29.3438 10.5469C29.3438 12.8906 30.3984 14.4375 32.3672 14.4375ZM46.7344 17.2266C43.0312 17.2266 40.6406 14.6016 40.6406 10.6641C40.6406 6.70312 43.0312 4.07812 46.7344 4.07812C50.4609 4.07812 52.8281 6.70312 52.8281 10.6641C52.8281 14.6016 50.4609 17.2266 46.7344 17.2266ZM46.7578 14.8359C48.7969 14.8359 49.8047 12.9844 49.8047 10.6406C49.8047 8.32031 48.7969 6.44531 46.7578 6.44531C44.6719 6.44531 43.6641 8.32031 43.6641 10.6406C43.6641 12.9844 44.6719 14.8359 46.7578 14.8359Z" fill="#FF610D"/>
</svg>
