<svg width="96" height="40" viewBox="0 0 96 40" fill="none" xmlns="http://www.w3.org/2000/svg">
<path d="M0 16C0 7.16344 7.16344 0 16 0H96V24C96 32.8366 88.8366 40 80 40H16C7.16345 40 0 32.8366 0 24V16Z" fill="#FFF3E0"/>
<path d="M28.3906 13.3906V21.0156H27.2188V13.3906H28.3906ZM25.6094 13.6719V20.9219H24.4375V16.9844H21.4219V15.9844H24.4375V13.6719H25.6094ZM18.5312 14.2812V19.375C20.0156 19.3594 21.4531 19.2734 23.1094 18.9375L23.2812 19.9375C21.4062 20.3281 19.875 20.3906 18.1875 20.3906H17.3125V14.2812H18.5312ZM20.5469 21.5938V23.2969H27.2031V21.5938H28.3906V27.0781H19.3125V21.5938H20.5469ZM20.5469 26.0781H27.2031V24.2656H20.5469V26.0781ZM41.3281 17.5156V19.1562H47.1094V20.1719H34.3906V19.1562H40.125V17.5156H41.3281ZM45.9375 13.8125V14.7812H41.5469C41.6484 16.2031 43.9766 17.2422 46.3906 17.4375L45.9844 18.3594C43.6719 18.1406 41.4922 17.2422 40.75 15.7812C39.9922 17.2422 37.8125 18.1406 35.4844 18.3594L35.0781 17.4375C37.4766 17.2422 39.8047 16.2031 39.9375 14.7812H35.5625V13.8125H45.9375ZM45.9062 22.0156V22.9844H35.5938V22.0156H40.125V20.7031H41.3438V22.0156H45.9062ZM40.7344 23.6719C43.4062 23.6719 44.9375 24.2969 44.9375 25.5C44.9375 26.7188 43.4062 27.3438 40.7344 27.3438C38.0312 27.3438 36.5469 26.7188 36.5469 25.5C36.5469 24.2969 38.0312 23.6719 40.7344 23.6719ZM40.7344 24.5312C38.8594 24.5469 37.7812 24.8594 37.7812 25.5C37.7812 26.1406 38.8594 26.5 40.7344 26.4844C42.625 26.5 43.6719 26.1406 43.6875 25.5C43.6719 24.8594 42.625 24.5469 40.7344 24.5312ZM51.9531 14.4531C54 14.4688 55.4531 16.3438 55.4688 19.2969C55.4531 22.25 54 24.125 51.9531 24.125C49.8906 24.125 48.4531 22.25 48.4531 19.2969C48.4531 16.3438 49.8906 14.4688 51.9531 14.4531ZM51.9531 15.5469C50.5781 15.5625 49.6094 17.0312 49.6094 19.2969C49.6094 21.5625 50.5781 23.0312 51.9531 23.0312C53.3438 23.0312 54.2812 21.5625 54.2812 19.2969C54.2812 17.0312 53.3438 15.5625 51.9531 15.5469ZM58.9844 13.375V18.9219H61.3125V19.9844H58.9844V27.2656H57.7656V13.375H58.9844ZM74.7812 24.4531V25.4844H62.0625V24.4531H65.2188V20.7031C64.0312 20.0859 63.3125 19.0859 63.3125 17.8281C63.3125 15.6719 65.4219 14.2656 68.3906 14.25C71.3594 14.2656 73.4688 15.6719 73.4688 17.8281C73.4688 19.0625 72.7734 20.0547 71.625 20.6719V24.4531H74.7812ZM68.3906 15.2656C66.1094 15.25 64.5 16.2812 64.5 17.8281C64.5 19.375 66.1094 20.4219 68.3906 20.4219C70.6562 20.4219 72.2812 19.375 72.2812 17.8281C72.2812 16.2812 70.6562 15.25 68.3906 15.2656ZM66.4219 24.4531H70.3906V21.1406C69.7891 21.3047 69.1172 21.3906 68.3906 21.3906C67.6797 21.3906 67.0156 21.3125 66.4219 21.1562V24.4531ZM78.1406 14.6875L78.0312 22.8125H76.7188L76.6094 14.6875H78.1406ZM77.375 26.0938C76.8281 26.0938 76.3594 25.6406 76.375 25.0781C76.3594 24.5312 76.8281 24.0781 77.375 24.0781C77.9219 24.0781 78.375 24.5312 78.375 25.0781C78.375 25.6406 77.9219 26.0938 77.375 26.0938Z" fill="#111111"/>
</svg>
